<?xml version="1.0" encoding="UTF-8" standalone="no"?>
<!DOCTYPE svg PUBLIC "-//W3C//DTD SVG 1.1//EN" "http://www.w3.org/Graphics/SVG/1.1/DTD/svg11.dtd">
<svg width="100%" height="100%" viewBox="0 0 275 80" version="1.1" xmlns="http://www.w3.org/2000/svg" xmlns:xlink="http://www.w3.org/1999/xlink" xml:space="preserve" xmlns:serif="http://www.serif.com/" style="fill-rule:evenodd;clip-rule:evenodd;stroke-linejoin:round;stroke-miterlimit:2;">
    <path d="M114.698,51.388C113.375,51.388 112.714,50.706 112.714,49.34L112.714,9.404L97.418,9.404C96.138,9.404 95.498,8.807 95.498,7.612C95.498,6.46 96.138,5.884 97.418,5.884L132.042,5.884C133.279,5.884 133.898,6.46 133.898,7.612C133.898,8.807 133.279,9.404 132.042,9.404L116.682,9.404L116.682,49.34C116.682,50.706 116.02,51.388 114.698,51.388ZM25.034,51.516C20.895,51.516 17.322,50.578 14.314,48.7C11.306,46.823 8.98,44.156 7.338,40.7C5.695,37.244 4.874,33.148 4.874,28.412C4.874,23.676 5.684,19.58 7.306,16.124C8.927,12.668 11.252,10.012 14.282,8.156C17.311,6.3 20.895,5.372 25.034,5.372C29.215,5.372 32.81,6.3 35.818,8.156C38.826,10.012 41.151,12.658 42.794,16.092C44.436,19.527 45.258,23.612 45.258,28.348C45.258,33.127 44.436,37.244 42.794,40.7C41.151,44.156 38.815,46.823 35.786,48.7C32.756,50.578 29.172,51.516 25.034,51.516ZM25.034,47.932C30.111,47.932 34.058,46.226 36.874,42.812C39.69,39.399 41.098,34.599 41.098,28.412C41.098,22.226 39.7,17.436 36.906,14.044C34.111,10.652 30.154,8.956 25.034,8.956C19.956,8.956 16.02,10.663 13.226,14.076C10.431,17.49 9.034,22.268 9.034,28.412C9.034,34.556 10.431,39.346 13.226,42.78C16.02,46.215 19.956,47.932 25.034,47.932ZM72.522,51.516C66.762,51.516 62.388,49.97 59.402,46.876C56.415,43.783 54.922,39.292 54.922,33.404L54.922,7.484C54.922,6.162 55.562,5.5 56.842,5.5C58.164,5.5 58.826,6.162 58.826,7.484L58.826,33.084C58.826,42.983 63.391,47.932 72.522,47.932C81.652,47.932 86.218,42.983 86.218,33.084L86.218,7.484C86.218,6.162 86.879,5.5 88.202,5.5C89.482,5.5 90.122,6.162 90.122,7.484L90.122,33.404C90.122,39.292 88.628,43.783 85.642,46.876C82.655,49.97 78.282,51.516 72.522,51.516ZM160.586,51.708C155.594,51.708 151.306,50.748 147.722,48.828C144.138,46.908 141.396,44.199 139.498,40.7C137.599,37.202 136.65,33.106 136.65,28.412C136.65,23.719 137.599,19.634 139.498,16.156C141.396,12.679 144.138,9.98 147.722,8.06C151.306,6.14 155.594,5.18 160.586,5.18C162.548,5.18 164.586,5.404 166.698,5.852C168.81,6.3 170.676,6.972 172.298,7.868C173.492,8.508 174.324,9.319 174.794,10.3C175.263,11.282 175.434,12.284 175.306,13.308C175.178,14.332 174.804,15.25 174.186,16.06C173.567,16.871 172.788,17.415 171.85,17.692C170.911,17.97 169.887,17.831 168.778,17.276C166.26,16.039 163.679,15.42 161.034,15.42C157.066,15.42 154.079,16.54 152.074,18.78C150.068,21.02 149.066,24.231 149.066,28.412C149.066,32.636 150.068,35.868 152.074,38.108C154.079,40.348 157.066,41.468 161.034,41.468C162.143,41.468 163.338,41.33 164.618,41.052C165.898,40.775 167.156,40.338 168.394,39.74C169.674,39.186 170.815,39.036 171.818,39.292C172.82,39.548 173.642,40.06 174.282,40.828C174.922,41.596 175.316,42.482 175.466,43.484C175.615,44.487 175.476,45.479 175.05,46.46C174.623,47.442 173.834,48.231 172.682,48.828C171.188,49.724 169.343,50.428 167.146,50.94C164.948,51.452 162.762,51.708 160.586,51.708ZM183.178,51.58C181.172,51.58 179.7,50.898 178.762,49.532C177.823,48.167 177.823,46.46 178.762,44.412L194.698,10.108C195.466,8.444 196.404,7.228 197.514,6.46C198.623,5.692 199.924,5.308 201.418,5.308C202.868,5.308 204.148,5.692 205.258,6.46C206.367,7.228 207.306,8.444 208.074,10.108L224.01,44.412C224.991,46.503 225.034,48.22 224.138,49.564C223.242,50.908 221.834,51.58 219.914,51.58C218.207,51.58 216.895,51.196 215.978,50.428C215.06,49.66 214.239,48.423 213.514,46.716L211.466,41.852L191.306,41.852L189.258,46.716C188.49,48.423 187.7,49.66 186.89,50.428C186.079,51.196 184.842,51.58 183.178,51.58ZM201.29,18.172L195.146,32.828L207.562,32.828L201.418,18.172L201.29,18.172ZM235.402,51.58C231.732,51.58 229.898,49.724 229.898,46.012L229.898,11.132C229.898,9.255 230.367,7.815 231.306,6.812C232.244,5.81 233.482,5.308 235.018,5.308C236.383,5.308 237.439,5.564 238.186,6.076C238.932,6.588 239.796,7.442 240.778,8.636L259.274,31.74L259.274,10.812C259.274,7.143 261.087,5.308 264.714,5.308C266.506,5.308 267.86,5.788 268.778,6.748C269.695,7.708 270.154,9.063 270.154,10.812L270.154,46.268C270.154,47.89 269.727,49.18 268.874,50.14C268.02,51.1 266.868,51.58 265.418,51.58C263.967,51.58 262.826,51.324 261.994,50.812C261.162,50.3 260.276,49.447 259.338,48.252L240.842,25.148L240.842,46.012C240.842,49.724 239.028,51.58 235.402,51.58Z"/>
    <path d="M193.042,74.82C193.226,74.694 193.372,74.538 193.481,74.352C193.667,74.032 193.761,73.64 193.761,73.178L193.761,66.992C193.761,65.889 193.219,65.338 192.134,65.338L187.947,65.338C186.845,65.338 186.294,65.836 186.294,66.832C186.294,67.827 186.845,68.325 187.947,68.325L190.347,68.325L190.347,72.005C189.227,72.325 188.161,72.485 187.147,72.485C185.245,72.485 183.81,71.969 182.841,70.938C181.872,69.907 181.387,68.387 181.387,66.378C181.387,64.387 181.863,62.863 182.814,61.805C183.765,60.747 185.192,60.218 187.094,60.218C188.587,60.218 189.93,60.529 191.121,61.152C191.672,61.418 192.147,61.458 192.547,61.272C192.947,61.085 193.245,60.783 193.441,60.365C193.636,59.947 193.685,59.516 193.587,59.072C193.49,58.627 193.201,58.272 192.721,58.005C192.606,57.941 192.491,57.879 192.376,57.82L203.526,57.82C203.411,57.994 203.302,58.189 203.201,58.405L196.374,73.365C196.119,73.916 196.051,74.401 196.172,74.82L193.042,74.82ZM253.838,74.82C253.911,74.611 253.947,74.366 253.947,74.085C253.947,73.018 253.405,72.485 252.321,72.485L244.801,72.485L244.801,67.792L251.707,67.792C252.81,67.792 253.361,67.249 253.361,66.165C253.361,65.08 252.81,64.538 251.707,64.538L244.801,64.538L244.801,60.138L252.321,60.138C253.405,60.138 253.947,59.596 253.947,58.512C253.947,58.248 253.914,58.018 253.849,57.82L259.101,57.82C258.37,58.261 257.772,58.807 257.307,59.458C256.667,60.356 256.347,61.4 256.347,62.592C256.347,65.365 258.027,67.107 261.387,67.818L264.401,68.458C265.379,68.672 266.063,68.929 266.454,69.232C266.845,69.534 267.041,69.943 267.041,70.458C267.041,71.063 266.761,71.565 266.201,71.965C265.641,72.365 264.721,72.565 263.441,72.565C262.587,72.565 261.725,72.467 260.854,72.272C259.983,72.076 259.192,71.774 258.481,71.365C257.93,71.098 257.459,71.054 257.067,71.232C256.676,71.409 256.392,71.712 256.214,72.138C256.036,72.565 256.01,73.005 256.134,73.458C256.259,73.912 256.57,74.272 257.067,74.538C257.239,74.637 257.418,74.731 257.602,74.82L253.838,74.82ZM215.015,74.82C215.124,74.406 215.053,73.921 214.801,73.365L207.921,58.405C207.825,58.189 207.722,57.994 207.611,57.82L217.657,57.82C217.584,58.045 217.547,58.303 217.547,58.592L217.547,74.032C217.547,74.326 217.585,74.589 217.661,74.82L215.015,74.82ZM233.165,57.82C233.123,57.887 233.082,57.958 233.041,58.032L227.334,68.458L221.627,58.032C221.586,57.958 221.545,57.887 221.503,57.82L233.165,57.82ZM270.011,67.088C269.153,66.145 267.799,65.472 265.947,65.072L262.934,64.432C262.01,64.236 261.361,63.978 260.987,63.658C260.614,63.338 260.427,62.92 260.427,62.405C260.427,61.712 260.734,61.147 261.347,60.712C261.961,60.276 262.827,60.058 263.947,60.058C264.641,60.058 265.316,60.129 265.974,60.272C266.632,60.414 267.254,60.636 267.841,60.938C268.427,61.223 268.921,61.285 269.321,61.125C269.612,61.008 269.842,60.831 270.011,60.591L270.011,67.088ZM205.521,61.312L205.574,61.312L208.587,68.405L202.561,68.405L205.521,61.312ZM221.18,74.82C221.247,74.591 221.281,74.329 221.281,74.032L221.281,64.325L225.654,72.112C225.85,72.449 226.072,72.703 226.321,72.872C226.57,73.04 226.89,73.125 227.281,73.125C227.672,73.125 227.987,73.04 228.227,72.872C228.467,72.703 228.694,72.449 228.907,72.112L233.281,64.245L233.281,74.032C233.281,74.329 233.315,74.591 233.383,74.82L221.18,74.82ZM181.678,57.82C180.186,58.62 179.045,59.748 178.254,61.205C177.463,62.663 177.067,64.387 177.067,66.378C177.067,68.316 177.45,70.005 178.214,71.445C178.979,72.885 180.094,74.005 181.561,74.805C181.57,74.81 181.579,74.815 181.588,74.82L13.319,74.82C8.643,74.82 4.846,71.023 4.846,66.347C4.846,61.64 8.667,57.82 13.373,57.82L181.678,57.82ZM236.94,74.82C237.007,74.591 237.041,74.329 237.041,74.032L237.041,58.592C237.041,58.303 237.005,58.045 236.934,57.82L241.121,57.82C240.943,58.148 240.854,58.565 240.854,59.072L240.854,73.552C240.854,74.066 240.946,74.489 241.13,74.82L236.94,74.82ZM199.773,74.82C199.878,74.635 199.981,74.425 200.081,74.192L201.174,71.632L209.947,71.632L211.067,74.192C211.163,74.425 211.265,74.634 211.373,74.82L199.773,74.82Z"/>
</svg>
